<svg id="Capa_1" enable-background="new 0 0 512 512" height="512" viewBox="0 0 512 512" width="512" xmlns="http://www.w3.org/2000/svg"><g><path d="m196 150c8.284 0 15-6.716 15-15v-60c0-8.284-6.716-15-15-15s-15 6.716-15 15v60c0 8.284 6.716 15 15 15z"/><path d="m136 150c8.284 0 15-6.716 15-15v-15c0-8.284-6.716-15-15-15s-15 6.716-15 15v15c0 8.284 6.716 15 15 15z"/><path d="m256 150c8.284 0 15-6.716 15-15v-60c0-8.284-6.716-15-15-15s-15 6.716-15 15v60c0 8.284 6.716 15 15 15z"/><path d="m316 150c8.284 0 15-6.716 15-15v-60c0-8.284-6.716-15-15-15s-15 6.716-15 15v60c0 8.284 6.716 15 15 15z"/><path d="m376 150c8.284 0 15-6.716 15-15v-60c0-8.284-6.716-15-15-15s-15 6.716-15 15v60c0 8.284 6.716 15 15 15z"/><path d="m266.606 366.394c-5.857-5.858-15.355-5.858-21.213 0l-60 60c-4.29 4.29-5.573 10.742-3.252 16.347 2.322 5.605 7.792 9.26 13.858 9.26h120c6.067 0 11.537-3.655 13.858-9.26s1.038-12.057-3.252-16.347zm-34.393 55.606 23.787-23.787 23.787 23.787z"/><path d="m155.394 4.394-90 90c-2.813 2.813-4.394 6.628-4.394 10.606v121c0 8.284 6.716 15 15 15h15v61h-15c-8.284 0-15 6.716-15 15v180c0 8.284 6.716 15 15 15h360c8.284 0 15-6.716 15-15v-180c0-8.284-6.716-15-15-15h-15v-61h15c8.284 0 15-6.716 15-15v-211c0-8.284-6.716-15-15-15h-270c-3.978 0-7.793 1.581-10.606 4.394zm265.606 25.606v181h-15c-8.284 0-15 6.716-15 15v91c0 8.284 6.716 15 15 15h15v150h-330v-150h15c8.284 0 15-6.716 15-15v-91c0-8.284-6.716-15-15-15h-15v-99.787l81.213-81.213z"/></g></svg>