<svg id="Layer_3" enable-background="new 0 0 64 64" height="512" viewBox="0 0 64 64" width="512" xmlns="http://www.w3.org/2000/svg"><g><path d="m62.707 14.293-13-13c-.391-.391-1.023-.391-1.414 0l-10.362 10.362c-.755-.398-1.711-.289-2.345.345l-4.66 4.66c-.752-.38-1.728-.272-2.34.34l-24.465 24.465c-2.013 2.013-3.121 4.688-3.121 7.535s1.108 5.522 3.121 7.535l3.344 3.344c2.013 2.013 4.688 3.121 7.535 3.121s5.522-1.108 7.535-3.121l24.465-24.465c.378-.378.586-.88.586-1.414 0-.332-.089-.647-.24-.932l4.654-4.654c.635-.634.744-1.59.345-2.345l10.362-10.362c.391-.391.391-1.023 0-1.414zm-30.293 3.707 1.586-1.586 13.586 13.586-1.586 1.586zm-11.293 40.465c-1.635 1.635-3.809 2.535-6.121 2.535s-4.486-.9-6.121-2.535l-3.344-3.344c-1.635-1.635-2.535-3.809-2.535-6.121s.9-4.486 2.535-6.121l24.465-24.465 15.586 15.586zm27.879-29.879-13.586-13.586 1.586-1.586 13.586 13.586zm2-4-11.586-11.586 9.586-9.586 11.586 11.586z"/><path d="m12.207 48.793c-1.178-1.18-3.236-1.18-4.414 0-.59.589-.914 1.373-.914 2.207s.324 1.618.914 2.207l3 3c.589.59 1.373.914 2.207.914s1.618-.324 2.207-.914c.59-.589.914-1.373.914-2.207s-.324-1.618-.914-2.207zm1.586 6c-.424.424-1.162.424-1.586 0l-3-3c-.212-.212-.328-.493-.328-.793s.116-.581.328-.793.493-.328.793-.328.581.116.793.328l3 3c.212.212.328.493.328.793s-.116.581-.328.793z"/><path d="m31.586 31-9.586 9.586v-7.172l1.489-1.489c.164.044.333.075.511.075 1.103 0 2-.897 2-2s-.897-2-2-2-2 .897-2 2c0 .178.031.347.075.511l-1.782 1.782c-.188.187-.293.441-.293.707v9.586l-2.489 2.489c-.164-.044-.333-.075-.511-.075-1.103 0-2 .897-2 2s.897 2 2 2 2-.897 2-2c0-.178-.031-.347-.075-.511l5.489-5.489h8.586c.266 0 .52-.105.707-.293l1.782-1.782c.164.044.333.075.511.075 1.103 0 2-.897 2-2s-.897-2-2-2-2 .897-2 2c0 .178.031.347.075.511l-1.489 1.489h-6.172l6.586-6.586.293.293c.189.189.445.293.707.293.076 0 .153-.009.229-.026.338-.08.609-.328.719-.657l1-3c.12-.359.026-.756-.241-1.023s-.663-.362-1.023-.241l-3 1c-.329.109-.577.381-.657.719-.079.337.021.691.267.937z"/><path d="m46.586 10h2.828v2h-2.828z" transform="matrix(.707 -.707 .707 .707 6.281 37.163)"/><path d="m51.586 15h2.828v2h-2.828z" transform="matrix(.707 -.707 .707 .707 4.21 42.163)"/></g></svg>