<?xml version="1.0" encoding="iso-8859-1"?>
<!-- Generator: Adobe Illustrator 19.0.0, SVG Export Plug-In . SVG Version: 6.00 Build 0)  -->
<svg version="1.1" id="Capa_1" xmlns="http://www.w3.org/2000/svg" xmlns:xlink="http://www.w3.org/1999/xlink" x="0px" y="0px"
	 viewBox="0 0 512 512" style="enable-background:new 0 0 512 512;" xml:space="preserve">
<g>
	<g>
		<path d="M119.736,208.044c-26.194,0-47.505,21.311-47.505,47.505v3.365l-32.003,16.002v73.278l32.003,16.002v3.365
			c0,14.115,7.001,26.806,16.002,35.515V512h15.002v-99.895c6.001,1.911,10.701,2.96,16.502,2.96
			c26.194,0,47.505-21.311,47.505-47.505V255.548C167.241,229.355,145.931,208.044,119.736,208.044z M72.231,347.422l-17.002-8.501
			v-54.735l17.002-8.502V347.422z M104.234,395.835c-9.843-5.593-17.002-16.167-17.002-28.275V255.548
			c0-12.107,7.159-22.682,17.002-28.274V395.835z M152.239,367.56c0,17.923-14.331,32.503-32.253,32.503
			c-0.335,0-0.417-0.015-0.75-0.025V223.071c0.333-0.01,0.415-0.025,0.75-0.025c17.922,0,32.253,14.581,32.253,32.503V367.56z"/>
	</g>
</g>
<g>
	<g>
		<path d="M439.269,258.914v-3.365c0-26.194-21.311-47.505-47.505-47.505s-47.505,21.311-47.505,47.505V367.56
			c0,26.194,21.311,47.505,47.505,47.505c5.8,0,11.501-1.049,16.502-2.96V512h15.002V403.075
			c10.001-8.709,16.002-21.398,16.002-35.515v-3.365l32.003-16.002v-73.278L439.269,258.914z M392.264,400.051
			c0,0.002-0.332,0.013-0.5,0.013c-17.922-0.001-32.503-14.582-32.503-32.504V255.548c0-17.923,14.581-32.503,32.503-32.503
			c0.168,0,0.5,0.01,0.5,0.013V400.051z M424.267,367.56c0,12.313-6.001,23.048-17.002,28.563V226.986
			c11.001,5.515,17.002,16.25,17.002,28.563V367.56z M456.271,338.922l-17.002,8.501v-71.737l17.002,8.502V338.922z"/>
	</g>
</g>
<g>
	<g>
		<path d="M451.082,155.361c-8.114-36.344-26.643-69.895-53.585-96.827C359.797,20.822,309.659,0,256.318,0
			c-45.499,0-89.992,15.678-125.285,44.192C96.616,71.999,72.194,111.044,62.14,153.896c-14.004,28.899-21.412,61.073-21.412,94.077
			h15.002c0-111.012,89.953-200.521,200.521-200.521s200.521,89.509,200.521,200.521h15.002
			C471.772,214.969,464.626,183.868,451.082,155.361z M408.648,95.15c-40.707-40.706-94.83-63.125-152.398-63.125
			c-57.121,0-110.843,22.081-151.44,62.189c9.957-14.338,21.943-27.307,35.65-38.382c32.632-26.365,73.778-40.885,115.857-40.885
			c49.333,0,95.704,19.208,130.573,54.088c8.124,8.121,15.405,16.888,21.809,26.167C408.682,95.185,408.665,95.167,408.648,95.15z"
			/>
	</g>
</g>
<g>
</g>
<g>
</g>
<g>
</g>
<g>
</g>
<g>
</g>
<g>
</g>
<g>
</g>
<g>
</g>
<g>
</g>
<g>
</g>
<g>
</g>
<g>
</g>
<g>
</g>
<g>
</g>
<g>
</g>
</svg>
