<svg xmlns="http://www.w3.org/2000/svg" height="597pt" version="1.1" viewBox="0 -106 597.47696 597" width="597pt">
<g id="surface1">
<path d="M 586.421875 311.949219 L 544.175781 311.949219 L 544.175781 10.714844 C 544.175781 4.886719 539.441406 0.152344 533.613281 0.152344 L 63.492188 0.152344 C 57.660156 0.152344 52.929688 4.886719 52.929688 10.714844 L 52.929688 311.949219 L 10.679688 311.949219 C 4.851562 311.886719 0.0664062 316.5625 0 322.394531 C -0.0078125 322.964844 0.0351562 323.535156 0.117188 324.09375 C 3.285156 345.21875 24.09375 385.355469 80.8125 385.355469 L 516.183594 385.355469 C 572.902344 385.355469 593.710938 345.324219 596.878906 324.09375 C 597.753906 318.328125 593.785156 312.941406 588.015625 312.066406 C 587.457031 311.980469 586.886719 311.9375 586.316406 311.949219 C 586.316406 311.949219 586.421875 311.949219 586.421875 311.949219 Z M 74.054688 21.277344 L 523.15625 21.277344 L 523.15625 311.949219 L 74.054688 311.949219 Z M 516.183594 364.125 L 81.023438 364.125 C 46.277344 364.125 31.488281 345.851562 25.257812 332.96875 L 572.058594 332.96875 C 566.039062 345.429688 551.25 364.125 516.183594 364.125 Z M 516.183594 364.125 " style=" stroke:none;fill-rule:nonzero;fill:rgb(0%,0%,0%);fill-opacity:1;" />
<path d="M 493.265625 37.332031 L 103.945312 37.332031 C 98.113281 37.332031 93.382812 42.066406 93.382812 47.894531 L 93.382812 285.226562 C 93.382812 291.058594 98.113281 295.789062 103.945312 295.789062 L 493.265625 295.789062 C 499.097656 295.789062 503.828125 291.058594 503.828125 285.226562 L 503.828125 47.894531 C 503.828125 42.0625 499.105469 37.332031 493.265625 37.332031 Z M 482.703125 274.664062 L 114.507812 274.664062 L 114.507812 58.457031 L 482.703125 58.457031 Z M 482.703125 274.664062 " style=" stroke:none;fill-rule:nonzero;fill:rgb(0%,0%,0%);fill-opacity:1;" />
</g>
</svg>