<svg height="512" viewBox="0 0 512 512" width="512" xmlns="http://www.w3.org/2000/svg"><g><path d="m476 240h-172v-12a28.043 28.043 0 0 0 -24-27.71v-40.29h32a8 8 0 0 0 8-8v-24h16a8 8 0 0 0 8-8v-24h40a8 8 0 0 0 0-16h-288a8 8 0 0 0 0 16h72v24a8 8 0 0 0 8 8h16v24a8 8 0 0 0 8 8h32v40.29a28.043 28.043 0 0 0 -24 27.71v12h-19a95.781 95.781 0 0 0 -106 0h-47a28.031 28.031 0 0 0 -28 28v104a28.031 28.031 0 0 0 28 28h4v12a28.031 28.031 0 0 0 28 28h376a28.031 28.031 0 0 0 28-28v-12h4a28.031 28.031 0 0 0 28-28v-104a28.031 28.031 0 0 0 -28-28zm-292-128v-16h144v16zm24 32v-16h96v16zm56 16v40h-16v-40zm-40 68a12.01 12.01 0 0 1 12-12h40a12.01 12.01 0 0 1 12 12v12h-64zm-88 12a80 80 0 1 1 -80 80 80.093 80.093 0 0 1 80-80zm-100 144a12.01 12.01 0 0 1 -12-12v-104a12.01 12.01 0 0 1 12-12h28.51a95.813 95.813 0 0 0 0 128zm420 28a12.01 12.01 0 0 1 -12 12h-376a12.01 12.01 0 0 1 -12-12v-12h27a95.781 95.781 0 0 0 106 0h267zm32-40a12.01 12.01 0 0 1 -12 12h-268.51a95.813 95.813 0 0 0 0-128h268.51a12.01 12.01 0 0 1 12 12z"/><path d="m136 384a64 64 0 1 0 -64-64 64.072 64.072 0 0 0 64 64zm0-112a48 48 0 1 1 -48 48 48.054 48.054 0 0 1 48-48z"/><path d="m464 280h-48a8 8 0 0 0 -8 8v64a8 8 0 0 0 8 8h48a8 8 0 0 0 8-8v-64a8 8 0 0 0 -8-8zm-8 64h-32v-48h32z"/><path d="m392 280h-80a8 8 0 0 0 0 16h80a8 8 0 0 0 0-16z"/><path d="m392 312h-80a8 8 0 0 0 0 16h80a8 8 0 0 0 0-16z"/><path d="m392 344h-80a8 8 0 0 0 0 16h80a8 8 0 0 0 0-16z"/><path d="m408 96h8a8 8 0 0 0 0-16h-8a8 8 0 0 0 0 16z"/></g></svg>