<svg id="_x31__px" enable-background="new 0 0 24 24" height="512" viewBox="0 0 24 24" width="512" xmlns="http://www.w3.org/2000/svg"><path d="m21.5 21h-19c-1.379 0-2.5-1.122-2.5-2.5v-4c0-1.378 1.121-2.5 2.5-2.5h19c1.379 0 2.5 1.122 2.5 2.5v4c0 1.378-1.121 2.5-2.5 2.5zm-19-8c-.827 0-1.5.673-1.5 1.5v4c0 .827.673 1.5 1.5 1.5h19c.827 0 1.5-.673 1.5-1.5v-4c0-.827-.673-1.5-1.5-1.5z"/><path d="m3.5 23c-.276 0-.5-.224-.5-.5v-2c0-.276.224-.5.5-.5s.5.224.5.5v2c0 .276-.224.5-.5.5z"/><path d="m17.5 13c-.276 0-.5-.224-.5-.5v-5c0-.276.224-.5.5-.5s.5.224.5.5v5c0 .276-.224.5-.5.5z"/><path d="m20.5 23c-.276 0-.5-.224-.5-.5v-2c0-.276.224-.5.5-.5s.5.224.5.5v2c0 .276-.224.5-.5.5z"/><path d="m19.5 18c-.827 0-1.5-.673-1.5-1.5s.673-1.5 1.5-1.5 1.5.673 1.5 1.5-.673 1.5-1.5 1.5zm0-2c-.275 0-.5.224-.5.5s.225.5.5.5.5-.224.5-.5-.225-.5-.5-.5z"/><path d="m4.5 18c-.827 0-1.5-.673-1.5-1.5s.673-1.5 1.5-1.5 1.5.673 1.5 1.5-.673 1.5-1.5 1.5zm0-2c-.275 0-.5.224-.5.5s.225.5.5.5.5-.224.5-.5-.225-.5-.5-.5z"/><path d="m9.5 18c-.827 0-1.5-.673-1.5-1.5s.673-1.5 1.5-1.5 1.5.673 1.5 1.5-.673 1.5-1.5 1.5zm0-2c-.275 0-.5.224-.5.5s.225.5.5.5.5-.224.5-.5-.225-.5-.5-.5z"/><path d="m20.06 6.44c-.17 0-.336-.087-.43-.244-.447-.749-1.243-1.196-2.13-1.196s-1.683.447-2.13 1.196c-.143.237-.452.313-.686.173-.237-.142-.315-.448-.174-.686.631-1.054 1.748-1.683 2.99-1.683s2.359.629 2.989 1.684c.142.237.063.544-.174.686-.08.047-.168.07-.255.07z"/><path d="m22.21 4.29c-.148 0-.295-.066-.394-.191-1.045-1.334-2.619-2.099-4.316-2.099s-3.271.765-4.316 2.099c-.171.217-.485.254-.702.085-.217-.17-.255-.485-.085-.702 1.236-1.578 3.096-2.482 5.103-2.482s3.867.904 5.104 2.481c.17.217.132.532-.085.702-.092.072-.201.107-.309.107z"/></svg>