<svg id="Layer_1" height="512" viewBox="0 0 512 512" width="512" xmlns="http://www.w3.org/2000/svg" data-name="Layer 1"><circle cx="60.79" cy="384.841" r="7.25"/><circle cx="60.79" cy="335.841" r="7.25"/><path d="m52.75 436.416h406.5v14.5h-406.5z"/><path d="m44.382 73.226 374.318 155.966h32.8l-402.266-167.611a6.308 6.308 0 0 0 -8.734 5.819 6.292 6.292 0 0 0 3.882 5.826z"/><path d="m476.511 239.192h-441.011a19.522 19.522 0 0 0 -19.5 19.5v19.5h361.745a5 5 0 0 1 0 10h-361.745v117.5a19.523 19.523 0 0 0 19.5 19.5h441a19.523 19.523 0 0 0 19.5-19.5v-117.5h-64.082a5 5 0 0 1 0-10h64.082v-19.5a19.522 19.522 0 0 0 -19.489-19.5zm-415.721 162.899a17.25 17.25 0 1 1 17.25-17.25 17.269 17.269 0 0 1 -17.25 17.25zm0-49a17.25 17.25 0 1 1 17.25-17.25 17.269 17.269 0 0 1 -17.25 17.25zm63.223 36.75h-12.25a5 5 0 0 1 0-10h12.25a5 5 0 1 1 0 10zm0-49h-12.25a5 5 0 0 1 0-10h12.25a5 5 0 1 1 0 10zm281.161-52.649h-.382a5 5 0 1 1 0-10h.382a5 5 0 0 1 0 10z"/></svg>