<svg height="512pt" viewBox="0 0 512 512" width="512pt" xmlns="http://www.w3.org/2000/svg"><path d="m466.976562 114.691406-45.023437 45.023438v307.261718c0 24.824219 20.195313 45.023438 45.023437 45.023438 24.824219 0 45.023438-20.199219 45.023438-45.023438v-307.261718zm0 42.425782 15.023438 15.023437v219.789063h-30.046875v-219.789063zm0 324.882812c-8.285156 0-15.023437-6.738281-15.023437-15.023438v-45.046874h30.046875v45.046874c0 8.285157-6.738281 15.023438-15.023438 15.023438zm0 0"/><path d="m210.953125 128.484375c0-18.484375 15.039063-33.523437 33.523437-33.523437 35.027344 0 63.523438-28.496094 63.523438-63.523438v-31.4375h-30v31.4375c0 18.484375-15.039062 33.523438-33.523438 33.523438-35.027343 0-63.523437 28.496093-63.523437 63.523437v22.441406h-180.953125v331.046875h391.902344v-331.042968h-180.949219zm-180.953125 52.445313h30.046875v271.046874h-30.046875zm331.902344 271.046874h-271.855469v-271.046874h271.855469zm0 0"/></svg>