<svg id="Capa_1" enable-background="new 0 0 480.068 480.068" height="512" viewBox="0 0 480.068 480.068" width="512" xmlns="http://www.w3.org/2000/svg"><path d="m148.034 120.068h20.184l-27.612 69.029c-1.643 4.101.349 8.758 4.451 10.401 3.081 1.234 6.604.438 8.855-2.001l96-104c2.998-3.245 2.798-8.307-.447-11.305-1.479-1.366-3.418-2.125-5.431-2.124h-31.355l21.6-27c2.761-3.449 2.204-8.484-1.245-11.245-1.419-1.136-3.182-1.755-5-1.755h-56c-3.335 0-6.32 2.068-7.491 5.191l-24 64c-1.551 4.137.545 8.748 4.682 10.3.898.337 1.85.509 2.809.509zm29.544-64h33.811l-21.6 27c-2.761 3.449-2.204 8.484 1.245 11.245 1.419 1.136 3.182 1.755 5 1.755h29.728l-54.2 58.714 15.9-39.743c1.641-4.102-.355-8.758-4.457-10.399-.945-.378-1.953-.572-2.971-.572h-20.456z"/><path d="m188.034 352.068c17.673 0 32-14.327 32-32s-14.327-32-32-32-32 14.327-32 32c.02 17.665 14.335 31.98 32 32zm0-48c8.837 0 16 7.163 16 16s-7.163 16-16 16-16-7.163-16-16c.011-8.832 7.168-15.989 16-16z"/><path d="m404.034 304.068v-24h-16v24h-16v-24h-16v24c-4.418 0-8 3.582-8 8v24c.019 14.586 9.882 27.321 24 30.987v57.013c-.015 13.249-10.751 23.985-24 24h-40v-272c0-4.418-3.582-8-8-8h-7.522c28.466-57.702 4.766-127.554-52.936-156.02s-127.554-4.766-156.02 52.936c-16.029 32.492-16.029 70.592 0 103.084h-7.522c-4.418 0-8 3.582-8 8v296c0 4.418 3.582 8 8 8h224c4.418 0 8-3.582 8-8v-8h40c22.081-.025 39.975-17.919 40-40v-57.013c14.118-3.666 23.981-16.401 24-30.987v-24c0-4.418-3.582-8-8-8zm-216-288c55.505 0 100.5 44.995 100.5 100.5s-44.995 100.5-100.5 100.5-100.5-44.995-100.5-100.5c.063-55.478 45.022-100.437 100.5-100.5zm-64 448h-40v-280h9.1c8.382 11.747 18.857 21.849 30.9 29.8zm80 0h-32v-16h32zm0-32h-32v-16h32zm0-32h-32v-16h32zm32 64h-16v-88c0-4.418-3.582-8-8-8h-48c-4.418 0-8 3.582-8 8v88h-16v-192h96zm0-208h-96v-33.354c30.511 13.805 65.489 13.805 96 0zm56 208h-40v-250.2c12.043-7.951 22.518-18.053 30.9-29.8h9.1zm104-128c0 8.837-7.163 16-16 16s-16-7.163-16-16v-16h32z"/></svg>